<?xml version="1.0" encoding="UTF-8" standalone="no"?>
<!-- Created with Inkscape (http://www.inkscape.org/) -->

<svg
   width="170mm"
   height="170mm"
   viewBox="0 0 170.00001 170"
   version="1.1"
   id="svg5"
   sodipodi:docname="fez.svg"
   inkscape:version="1.1.2 (b8e25be833, 2022-02-05)"
   xmlns:inkscape="http://www.inkscape.org/namespaces/inkscape"
   xmlns:sodipodi="http://sodipodi.sourceforge.net/DTD/sodipodi-0.dtd"
   xmlns="http://www.w3.org/2000/svg"
   xmlns:svg="http://www.w3.org/2000/svg">
  <sodipodi:namedview
     id="namedview7"
     pagecolor="#ffffff"
     bordercolor="#666666"
     borderopacity="1.0"
     inkscape:pageshadow="2"
     inkscape:pageopacity="1"
     inkscape:pagecheckerboard="false"
     inkscape:document-units="mm"
     showgrid="false"
     inkscape:zoom="1.0053654"
     inkscape:cx="325.75222"
     inkscape:cy="335.69885"
     inkscape:window-width="1920"
     inkscape:window-height="991"
     inkscape:window-x="-9"
     inkscape:window-y="-9"
     inkscape:window-maximized="1"
     inkscape:current-layer="layer4"
     width="170mm" />
  <defs
     id="defs2" />
  <g
     inkscape:groupmode="layer"
     id="layer4"
     inkscape:label="Background1"
     style="display:inline">
    <rect
       style="fill:#120826;fill-opacity:1;stroke:none;stroke-width:9.30261"
       id="rect3280"
       width="171.20302"
       height="170.45863"
       x="1.4340996e-08"
       y="0.37218067" />
    <rect
       style="fill:#120826;fill-opacity:1;stroke:none;stroke-width:10"
       id="rect3535"
       width="171.20302"
       height="170.45863"
       x="1.4340996e-08"
       y="0.37218067" />
  </g>
  <g
     inkscape:groupmode="layer"
     id="layer3"
     inkscape:label="Layer 3"
     transform="translate(-33.949349,-39.212594)">
    <path
       id="path1010"
       style="fill:#e05c30;fill-opacity:1;stroke-width:10.3677"
       d="m 121.68172,58.193797 a 54.213291,16.711378 0 0 0 -54.213225,16.711122 54.213291,16.711378 0 0 0 0.07028,0.65836 h -0.07028 L 54.418647,168.96119 a 67.635024,22.764318 0 0 0 -0.371554,2.26447 67.635024,22.764318 0 0 0 0.02273,0.23306 l -0.02273,0.16174 h 0.03824 a 67.635024,22.764318 0 0 0 67.596387,22.3697 67.635024,22.764318 0 0 0 67.54575,-21.84363 l 0.0894,5.3e-4 -0.0522,-0.38344 a 67.635024,22.764318 0 0 0 0.0522,-0.53795 67.635024,22.764318 0 0 0 -0.50074,-2.75332 L 176.1585,75.563279 h -0.33331 a 54.213291,16.711378 0 0 0 0.0698,-0.65836 54.213291,16.711378 0 0 0 -54.21323,-16.711122 z" />
  </g>
  <g
     inkscape:label="Layer 1"
     inkscape:groupmode="layer"
     id="layer1"
     transform="translate(-33.949349,-39.212594)">
    <path
       id="path1538"
       style="fill:#f5a623;fill-opacity:1;stroke-width:10"
       d="m 121.07183,68.915267 c 3.09342,4.83e-4 5.857,1.104963 6.91896,2.765207 27.6913,5.790199 39.59655,16.18299 39.59655,16.18299 l 2.17876,36.668966 -4.26339,-0.65412 -2.06029,-34.369987 c 0,0 -13.68495,-9.474401 -36.31768,-13.816727 l 0.0434,-0.203604 c -1.37035,1.155447 -3.65364,1.847769 -6.09627,1.848466 -4.06946,-8.9e-5 -7.36837,-1.885187 -7.36851,-4.210595 1.4e-4,-2.325408 3.29905,-4.210507 7.36851,-4.210596 z"
       sodipodi:nodetypes="cccccccccccc" />
  </g>
  <g
     inkscape:groupmode="layer"
     id="layer2"
     inkscape:label="Layer 2"
     transform="translate(-33.949349,-39.212594)">
    <path
       id="path1380"
       style="fill:#6b1f4a;fill-opacity:1;stroke-width:10"
       d="m 167.36361,119.41214 a 7.9553569,8.2344923 0 0 1 7.95559,8.23412 7.9553569,8.2344923 0 0 1 -3.45199,6.78667 l 8.28787,26.77614 a 12.632224,4.9673599 0 0 1 0.21756,0.90951 12.632224,4.9673599 0 0 1 -12.63179,4.96714 12.632224,4.9673599 0 0 1 -12.63231,-4.96714 12.632224,4.9673599 0 0 1 0.27389,-1.02785 l 7.65586,-26.53946 a 7.9553569,8.2344923 0 0 1 -3.63027,-6.90501 7.9553569,8.2344923 0 0 1 7.95559,-8.23412 z" />
  </g>
</svg>
